<?xml version="1.0" encoding="UTF-8"?>
<svg xmlns="http://www.w3.org/2000/svg" width="460" height="420" viewBox="0 0 460 420">
  <!-- Card -->
  <rect x="10" y="10" width="440" height="400" rx="16" fill="#0b1320" stroke="#233044"/>

  <!-- Título -->
  <text x="32" y="46" fill="#e6edf3" font-family="Segoe UI, Arial, sans-serif" font-size="18" font-weight="700">
    Nivel de dominio (skills)
  </text>

  <!-- Nota: ancho útil = 360; width = porcentaje * 3.6 -->

  <!-- 1: JavaScript 90% => 324 -->
  <g transform="translate(32,70)">
    <text x="0" y="12" fill="#e6edf3" font-family="Segoe UI, Arial, sans-serif" font-size="13" font-weight="700">JavaScript</text>
    <text x="360" y="12" fill="#a6b3c3" font-family="Segoe UI, Arial, sans-serif" font-size="13" font-weight="700" text-anchor="end">90%</text>
    <rect x="0" y="18" width="360" height="8" rx="4" fill="#1f2a44"/>
    <rect x="0" y="18" width="324" height="8" rx="4" fill="#f59e0b">
      <animate attributeName="width" from="0" to="324" dur="0.9s" fill="freeze"/>
    </rect>
  </g>

  <!-- 2: TypeScript 78% => 281 -->
  <g transform="translate(32,114)">
    <text x="0" y="12" fill="#e6edf3" font-family="Segoe UI, Arial, sans-serif" font-size="13" font-weight="700">TypeScript</text>
    <text x="360" y="12" fill="#a6b3c3" font-family="Segoe UI, Arial, sans-serif" font-size="13" font-weight="700" text-anchor="end">78%</text>
    <rect x="0" y="18" width="360" height="8" rx="4" fill="#1f2a44"/>
    <rect x="0" y="18" width="281" height="8" rx="4" fill="#3b82f6">
      <animate attributeName="width" from="0" to="281" dur="0.9s" fill="freeze"/>
    </rect>
  </g>

  <!-- 3: HTML 72% => 259 -->
  <g transform="translate(32,158)">
    <text x="0" y="12" fill="#e6edf3" font-family="Segoe UI, Arial, sans-serif" font-size="13" font-weight="700">HTML</text>
    <text x="360" y="12" fill="#a6b3c3" font-family="Segoe UI, Arial, sans-serif" font-size="13" font-weight="700" text-anchor="end">72%</text>
    <rect x="0" y="18" width="360" height="8" rx="4" fill="#1f2a44"/>
    <rect x="0" y="18" width="259" height="8" rx="4" fill="#ef4444">
      <animate attributeName="width" from="0" to="259" dur="0.9s" fill="freeze"/>
    </rect>
  </g>

  <!-- 4: CSS 69% => 248 -->
  <g transform="translate(32,202)">
    <text x="0" y="12" fill="#e6edf3" font-family="Segoe UI, Arial, sans-serif" font-size="13" font-weight="700">CSS</text>
    <text x="360" y="12" fill="#a6b3c3" font-family="Segoe UI, Arial, sans-serif" font-size="13" font-weight="700" text-anchor="end">69%</text>
    <rect x="0" y="18" width="360" height="8" rx="4" fill="#1f2a44"/>
    <rect x="0" y="18" width="248" height="8" rx="4" fill="#2563eb">
      <animate attributeName="width" from="0" to="248" dur="0.9s" fill="freeze"/>
    </rect>
  </g>

  <!-- 5: Python 88% => 317 -->
  <g transform="translate(32,246)">
    <text x="0" y="12" fill="#e6edf3" font-family="Segoe UI, Arial, sans-serif" font-size="13" font-weight="700">Python</text>
    <text x="360" y="12" fill="#a6b3c3" font-family="Segoe UI, Arial, sans-serif" font-size="13" font-weight="700" text-anchor="end">88%</text>
    <rect x="0" y="18" width="360" height="8" rx="4" fill="#1f2a44"/>
    <rect x="0" y="18" width="317" height="8" rx="4" fill="#10b981">
      <animate attributeName="width" from="0" to="317" dur="0.9s" fill="freeze"/>
    </rect>
  </g>

  <!-- 6: R 84% => 302 -->
  <g transform="translate(32,290)">
    <text x="0" y="12" fill="#e6edf3" font-family="Segoe UI, Arial, sans-serif" font-size="13" font-weight="700">R</text>
    <text x="360" y="12" fill="#a6b3c3" font-family="Segoe UI, Arial, sans-serif" font-size="13" font-weight="700" text-anchor="end">84%</text>
    <rect x="0" y="18" width="360" height="8" rx="4" fill="#1f2a44"/>
    <rect x="0" y="18" width="302" height="8" rx="4" fill="#3b82f6">
      <animate attributeName="width" from="0" to="302" dur="0.9s" fill="freeze"/>
    </rect>
  </g>

  <!-- 7: SQL 80% => 288 -->
  <g transform="translate(32,334)">
    <text x="0" y="12" fill="#e6edf3" font-family="Segoe UI, Arial, sans-serif" font-size="13" font-weight="700">SQL</text>
    <text x="360" y="12" fill="#a6b3c3" font-family="Segoe UI, Arial, sans-serif" font-size="13" font-weight="700" text-anchor="end">80%</text>
    <rect x="0" y="18" width="360" height="8" rx="4" fill="#1f2a44"/>
    <rect x="0" y="18" width="288" height="8" rx="4" fill="#2563eb">
      <animate attributeName="width" from="0" to="288" dur="0.9s" fill="freeze"/>
    </rect>
  </g>

  <!-- 8: Docker 78% => 281 -->
  <g transform="translate(32,378)">
    <text x="0" y="12" fill="#e6edf3" font-family="Segoe UI, Arial, sans-serif" font-size="13" font-weight="700">Docker</text>
    <text x="360" y="12" fill="#a6b3c3" font-family="Segoe UI, Arial, sans-serif" font-size="13" font-weight="700" text-anchor="end">78%</text>
    <rect x="0" y="18" width="360" height="8" rx="4" fill="#1f2a44"/>
    <rect x="0" y="18" width="281" height="8" rx="4" fill="#06b6d4">
      <animate attributeName="width" from="0" to="281" dur="0.9s" fill="freeze"/>
    </rect>
  </g>
</svg>
