<?xml version="1.0" encoding="UTF-8"?>
<!-- Luis Cohen - skills.svg (SMIL, sin scripts; compatible con GitHub) -->
<svg xmlns="http://www.w3.org/2000/svg" width="460" height="470" viewBox="0 0 460 470">
  <defs>
    <linearGradient id="bg" x1="0" y1="0" x2="0" y2="1">
      <stop offset="0" stop-color="#0d1424"/>
      <stop offset="1" stop-color="#0b1320"/>
    </linearGradient>

    <filter id="shadow" x="-20%" y="-20%" width="140%" height="140%">
      <feDropShadow dx="0" dy="6" stdDeviation="10" flood-color="#000000" flood-opacity="0.35"/>
    </filter>

    <!-- Brillo (sin rgba) -->
    <linearGradient id="shine" x1="0" y1="0" x2="1" y2="0">
      <stop offset="0%">
        <animate attributeName="stop-opacity" values="0;0" dur="0.001s" fill="freeze"/>
        <stop-color>#ffffff</stop-color><stop-opacity>0</stop-opacity>
      </stop>
      <stop offset="50%">
        <stop-color>#ffffff</stop-color><stop-opacity>0.45</stop-opacity>
      </stop>
      <stop offset="100%">
        <stop-color>#ffffff</stop-color><stop-opacity>0</stop-opacity>
      </stop>
    </linearGradient>

    <!-- Paletas -->
    <linearGradient id="g-js"  x1="0" y1="0" x2="1" y2="0"><stop offset="0%" stop-color="#fde047"/><stop offset="100%" stop-color="#f59e0b"/></linearGradient>
    <linearGradient id="g-ts"  x1="0" y1="0" x2="1" y2="0"><stop offset="0%" stop-color="#60a5fa"/><stop offset="100%" stop-color="#3b82f6"/></linearGradient>
    <linearGradient id="g-html"x1="0" y1="0" x2="1" y2="0"><stop offset="0%" stop-color="#fb7185"/><stop offset="100%" stop-color="#ef4444"/></linearGradient>
    <linearGradient id="g-css" x1="0" y1="0" x2="1" y2="0"><stop offset="0%" stop-color="#93c5fd"/><stop offset="100%" stop-color="#2563eb"/></linearGradient>
    <linearGradient id="g-py"  x1="0" y1="0" x2="1" y2="0"><stop offset="0%" stop-color="#34d399"/><stop offset="100%" stop-color="#10b981"/></linearGradient>
    <linearGradient id="g-r"   x1="0" y1="0" x2="1" y2="0"><stop offset="0%" stop-color="#60a5fa"/><stop offset="100%" stop-color="#3b82f6"/></linearGradient>
    <linearGradient id="g-sql" x1="0" y1="0" x2="1" y2="0"><stop offset="0%" stop-color="#93c5fd"/><stop offset="100%" stop-color="#2563eb"/></linearGradient>
    <linearGradient id="g-dk"  x1="0" y1="0" x2="1" y2="0"><stop offset="0%" stop-color="#67e8f9"/><stop offset="100%" stop-color="#06b6d4"/></linearGradient>
    <linearGradient id="g-tf"  x1="0" y1="0" x2="1" y2="0"><stop offset="0%" stop-color="#fb923c"/><stop offset="100%" stop-color="#f97316"/></linearGradient>

    <style>
      .title{font:700 18px 'Segoe UI',sans-serif; fill:#e6edf3}
      .name{font:700 13px 'Segoe UI',sans-serif; fill:#e6edf3}
      .pct {font:700 13px 'Segoe UI',sans-serif; fill:#a6b3c3}
    </style>
  </defs>

  <!-- Card -->
  <g filter="url(#shadow)">
    <rect x="10" y="10" width="440" height="450" rx="16" fill="url(#bg)" stroke="#233044"/>
  </g>
  <text class="title" x="36" y="50">📊 Nivel de dominio (skills)</text>

  <!-- Helper: ancho útil = 360; width = porcentaje * 3.6 -->

  <!-- 1: JavaScript 90% (324) -->
  <g transform="translate(36,78)">
    <text class="name" x="0" y="12">JavaScript</text>
    <text class="pct"  x="360" y="12" text-anchor="end">90%</text>
    <rect x="0" y="18" width="360" height="8" rx="4" fill="#1f2a44"/>
    <rect x="0" y="18" width="324" height="8" rx="4" fill="url(#g-js)">
      <animate attributeName="width" from="0" to="324" dur="0.9s" fill="freeze"/>
    </rect>
    <rect x="-90" y="18" width="90" height="8" fill="url(#shine)" opacity=".18">
      <animate attributeName="x" from="-90" to="360" dur="2.4s" repeatCount="indefinite"/>
    </rect>
  </g>

  <!-- 2: TypeScript 78% (281) -->
  <g transform="translate(36,126)">
    <text class="name" x="0" y="12">TypeScript</text>
    <text class="pct"  x="360" y="12" text-anchor="end">78%</text>
    <rect x="0" y="18" width="360" height="8" rx="4" fill="#1f2a44"/>
    <rect x="0" y="18" width="281" height="8" rx="4" fill="url(#g-ts)">
      <animate attributeName="width" from="0" to="281" dur="0.9s" fill="freeze"/>
    </rect>
    <rect x="-90" y="18" width="90" height="8" fill="url(#shine)" opacity=".18">
      <animate attributeName="x" from="-90" to="360" dur="2.4s" repeatCount="indefinite"/>
    </rect>
  </g>

  <!-- 3: HTML 72% (259) -->
  <g transform="translate(36,174)">
    <text class="name" x="0" y="12">HTML</text>
    <text class="pct"  x="360" y="12" text-anchor="end">72%</text>
    <rect x="0" y="18" width="360" height="8" rx="4" fill="#1f2a44"/>
    <rect x="0" y="18" width="259" height="8" rx="4" fill="url(#g-html)">
      <animate attributeName="width" from="0" to="259" dur="0.9s" fill="freeze"/>
    </rect>
    <rect x="-90" y="18" width="90" height="8" fill="url(#shine)" opacity=".18">
      <animate attributeName="x" from="-90" to="360" dur="2.4s" repeatCount="indefinite"/>
    </rect>
  </g>

  <!-- 4: CSS 69% (248) -->
  <g transform="translate(36,222)">
    <text class="name" x="0" y="12">CSS</text>
    <text class="pct"  x="360" y="12" text-anchor="end">69%</text>
    <rect x="0" y="18" width="360" height="8" rx="4" fill="#1f2a44"/>
    <rect x="0" y="18" width="248" height="8" rx="4" fill="url(#g-css)">
      <animate attributeName="width" from="0" to="248" dur="0.9s" fill="freeze"/>
    </rect>
    <rect x="-90" y="18" width="90" height="8" fill="url(#shine)" opacity=".18">
      <animate attributeName="x" from="-90" to="360" dur="2.4s" repeatCount="indefinite"/>
    </rect>
  </g>

  <!-- 5: Python 88% (317) -->
  <g transform="translate(36,270)">
    <text class="name" x="0" y="12">Python</text>
    <text class="pct"  x="360" y="12" text-anchor="end">88%</text>
    <rect x="0" y="18" width="360" height="8" rx="4" fill="#1f2a44"/>
    <rect x="0" y="18" width="317" height="8" rx="4" fill="url(#g-py)">
      <animate attributeName="width" from="0" to="317" dur="0.9s" fill="freeze"/>
    </rect>
    <rect x="-90" y="18" width="90" height="8" fill="url(#shine)" opacity=".18">
      <animate attributeName="x" from="-90" to="360" dur="2.4s" repeatCount="indefinite"/>
    </rect>
  </g>

  <!-- 6: R 84% (302) -->
  <g transform="translate(36,318)">
    <text class="name" x="0" y="12">R</text>
    <text class="pct"  x="360" y="12" text-anchor="end">84%</text>
    <rect x="0" y="18" width="360" height="8" rx="4" fill="#1f2a44"/>
    <rect x="0" y="18" width="302" height="8" rx="4" fill="url(#g-r)">
      <animate attributeName="width" from="0" to="302" dur="0.9s" fill="freeze"/>
    </rect>
    <rect x="-90" y="18" width="90" height="8" fill="url(#shine)" opacity=".18">
      <animate attributeName="x" from="-90" to="360" dur="2.4s" repeatCount="indefinite"/>
    </rect>
  </g>

  <!-- 7: SQL 80% (288) -->
  <g transform="translate(36,366)">
    <text class="name" x="0" y="12">SQL</text>
    <text class="pct"  x="360" y="12" text-anchor="end">80%</text>
    <rect x="0" y="18" width="360" height="8" rx="4" fill="#1f2a44"/>
    <rect x="0" y="18" width="288" height="8" rx="4" fill="url(#g-sql)">
      <animate attributeName="width" from="0" to="288" dur="0.9s" fill="freeze"/>
    </rect>
    <rect x="-90" y="18" width="90" height="8" fill="url(#shine)" opacity=".18">
      <animate attributeName="x" from="-90" to="360" dur="2.4s" repeatCount="indefinite"/>
    </rect>
  </g>

  <!-- 8: Docker 78% (281) -->
  <g transform="translate(36,414)">
    <text class="name" x="0" y="12">Docker</text>
    <text class="pct"  x="360" y="12" text-anchor="end">78%</text>
    <rect x="0" y="18" width="360" height="8" rx="4" fill="#1f2a44"/>
    <rect x="0" y="18" width="281" height="8" rx="4" fill="url(#g-dk)">
      <animate attributeName="width" from="0" to="281" dur="0.9s" fill="freeze"/>
    </rect>
    <rect x="-90" y="18" width="90" height="8" fill="url(#shine)" opacity=".18">
      <animate attributeName="x" from="-90" to="360" dur="2.4s" repeatCount="indefinite"/>
    </rect>
  </g>
</svg>
